<?xml version="1.0" encoding="UTF-8" standalone="no"?>
<!-- Created with Inkscape (http://www.inkscape.org/) -->

<svg
   xmlns:dc="http://purl.org/dc/elements/1.1/"
   xmlns:cc="http://creativecommons.org/ns#"
   xmlns:rdf="http://www.w3.org/1999/02/22-rdf-syntax-ns#"
   xmlns:svg="http://www.w3.org/2000/svg"
   xmlns="http://www.w3.org/2000/svg"
   xmlns:sodipodi="http://sodipodi.sourceforge.net/DTD/sodipodi-0.dtd"
   xmlns:inkscape="http://www.inkscape.org/namespaces/inkscape"
   width="191"
   height="60"
   viewBox="0 0 191.00001 60"
   id="svg2"
   version="1.1"
   inkscape:version="0.91 r13725"
   sodipodi:docname="logo.svg">
  <defs
     id="defs4" />
  <sodipodi:namedview
     id="base"
     pagecolor="#ffffff"
     bordercolor="#666666"
     borderopacity="1.0"
     inkscape:pageopacity="0.0"
     inkscape:pageshadow="2"
     inkscape:zoom="0.76015625"
     inkscape:cx="273.71604"
     inkscape:cy="79.301131"
     inkscape:document-units="px"
     inkscape:current-layer="layer1"
     showgrid="false"
     showguides="false"
     inkscape:window-width="1366"
     inkscape:window-height="705"
     inkscape:window-x="-8"
     inkscape:window-y="-8"
     inkscape:window-maximized="1"
     units="px" />
  <metadata
     id="metadata7">
    <rdf:RDF>
      <cc:Work
         rdf:about="">
        <dc:format>image/svg+xml</dc:format>
        <dc:type
           rdf:resource="http://purl.org/dc/dcmitype/StillImage" />
        <dc:title></dc:title>
      </cc:Work>
    </rdf:RDF>
  </metadata>
  <g
     inkscape:label="Camada 1"
     inkscape:groupmode="layer"
     id="layer1"
     transform="translate(0,-992.36218)">
    <g
       id="g4260"
       transform="translate(-205.22055,624.18793)">
      <text
         sodipodi:linespacing="125%"
         id="text4146"
         y="427.49066"
         x="257.84174"
         style="font-style:normal;font-weight:normal;font-size:40px;line-height:125%;font-family:sans-serif;letter-spacing:0px;word-spacing:0px;fill:#000000;fill-opacity:1;stroke:none;stroke-width:1px;stroke-linecap:butt;stroke-linejoin:miter;stroke-opacity:1"
         xml:space="preserve"><tspan
           y="427.49066"
           x="257.84174"
           id="tspan4148"
           sodipodi:role="line">J<tspan
   id="tspan4170"
   style="font-style:normal;font-variant:normal;font-weight:bold;font-stretch:normal;font-family:sans-serif;-inkscape-font-specification:'sans-serif Bold'">Solve</tspan></tspan><tspan
           id="tspan4150"
           y="477.49066"
           x="257.84174"
           sodipodi:role="line" /></text>
      <g
         transform="matrix(0.83505146,0,0,0.83505146,44.83609,66.187705)"
         id="g4235">
        <path
           style="fill:#f44336;fill-opacity:1;stroke:none;stroke-width:0;stroke-miterlimit:4;stroke-dasharray:none;stroke-opacity:1"
           d="m 255.868,411.0467 a 21.298718,13.813024 0 0 0 -21.29886,-13.8131 21.298718,13.813024 0 0 0 -1.06407,0.0236 l 0,27.56777 a 21.298718,13.813024 0 0 0 1.06407,0.0349 21.298718,13.813024 0 0 0 21.29886,-13.81311 z"
           id="path4172-0"
           inkscape:connector-curvature="0" />
        <path
           style="fill:#000000;fill-opacity:1;stroke:none;stroke-width:0;stroke-miterlimit:4;stroke-dasharray:none;stroke-opacity:1"
           d="m 249.2904,411.04667 a 13.781223,9.2087445 0 0 0 -13.78132,-9.2088 13.781223,9.2087445 0 0 0 -0.6885,0.0157 l 0,18.37864 a 13.781223,9.2087445 0 0 0 0.6885,0.0233 13.781223,9.2087445 0 0 0 13.78132,-9.2088 z"
           id="path4172-0-3"
           inkscape:connector-curvature="0" />
        <path
           style="fill:#f44336;fill-opacity:1;stroke:none;stroke-width:0;stroke-miterlimit:4;stroke-dasharray:none;stroke-opacity:1"
           d="m 192.11026,393.28747 a 26.310381,37.586625 0 0 0 -0.0449,1.87695 26.310381,37.586625 0 0 0 9.125,28.4336 c 0.43166,-0.93771 0.85364,-1.88012 1.48633,-2.68164 0.27535,-0.34883 0.68855,-0.55824 1.0664,-0.79883 -0.15643,-0.11183 -0.15654,-0.59154 -0.30273,-1.06641 -0.10353,-0.60744 -0.50904,-2.63365 -0.35547,-3.24218 0.12602,-0.49937 1.08578,-2.10047 2.04102,-1.61524 0.19146,0.0973 1.41014,1.98333 1.67578,2.38672 -0.0573,1.50253 1.32686,1.43489 1.81445,2.56055 0.0236,0.0544 0.0351,0.11171 0.0527,0.16797 0.0652,-0.64939 -0.0844,-1.32399 0.0703,-1.95704 0.11727,-0.47989 0.46504,-0.87457 0.65625,-1.33007 0.62529,-1.4896 0.72615,-2.82191 0.70117,-4.41407 0.24972,-0.83483 -0.50597,-1.75014 -0.27539,-2.58593 0.32095,-1.16341 1.81599,-1.79481 2.47851,-2.68555 0.25537,-0.34333 0.37557,-0.7694 0.5625,-1.1543 0.2679,-0.83353 -0.77771,-5.20026 0.29883,-5.14062 1.58474,0.0878 1.65792,2.07655 1.86524,3.01758 0.6927,0.44198 0.8456,1.35901 1.4414,1.875 0.16333,0.14145 0.44332,0.0502 0.62696,0.16406 0.83767,0.5192 1.51911,1.14935 2.11523,1.92383 0.64619,-2.59734 -0.27519,-5.36274 -0.10547,-7.98243 0.0559,-0.86271 0.36187,-1.69178 0.54297,-2.53711 0.3463,-1.0639 1.03186,-2.06824 1.01367,-3.21484 l -28.55078,0 z m 29.86328,0 c 0.005,1.26822 -0.56648,2.35323 -1.04297,3.50391 -0.17132,0.72073 -0.46687,1.42277 -0.51367,2.16211 -0.12044,1.90301 1.33586,7.76828 -0.91406,8.98437 -0.4128,0.22312 -0.92983,-0.13017 -1.39453,-0.19531 -0.46977,-1.08496 -1.85535,-1.32453 -2.71485,-2.04883 -0.29557,-0.24907 -0.44787,-0.63089 -0.66992,-0.94726 -0.13687,-0.19502 -0.27368,-0.39065 -0.41015,-0.58594 0.0403,0.54505 -0.008,1.08945 -0.28516,1.6289 -0.62975,1.14973 -1.31861,2.37068 -2.50391,3.06446 -0.11412,0.0668 -0.36852,-0.10237 -0.39453,0.0273 -0.17893,0.89187 0.51227,1.82359 0.28321,2.71484 0.008,1.8053 -0.10113,3.39157 -0.86719,5.06446 -0.12313,0.26889 -0.42716,0.44978 -0.49219,0.73828 -0.13079,0.58028 -0.0506,1.18891 -0.0762,1.7832 l -0.44727,1.54688 c -0.42109,0.2085 -0.79192,0.63435 -1.26172,0.625 -0.96979,-0.0193 -0.55167,-1.00515 -0.69726,-1.41211 -0.37784,-1.05611 -1.95378,-1.31947 -1.87695,-2.65039 -0.45371,-0.72399 -0.70065,-1.07509 -0.83399,-1.24805 -0.12896,-0.11112 -0.1913,-0.24813 0,0 0.15084,0.12997 0.37913,0.1947 0.375,-0.53906 -0.002,-0.28972 -0.76858,-0.045 -0.83789,0.23633 -0.13727,0.55721 0.20867,2.35671 0.30078,2.92382 1.01766,3.30931 0.0868,1.64104 -0.8789,2.9043 -0.71362,0.93353 -1.18639,2.02728 -1.70704,3.08984 a 26.310381,37.586625 0 0 0 16.26368,8.09375 26.310381,37.586625 0 0 0 26.31054,-37.58789 26.310381,37.586625 0 0 0 -0.0664,-1.87695 l -22.64649,0 z m -7.78125,7.49414 c -0.0911,-0.005 -0.33537,0.0892 -0.34179,0.1875 -0.008,0.11608 0.004,0.23286 0.008,0.34961 0.10327,-0.11977 0.22161,-0.27835 0.35937,-0.49414 0.0177,-0.0277 0.005,-0.0411 -0.0254,-0.043 z"
           id="path4172"
           inkscape:connector-curvature="0" />
      </g>
      <path
         inkscape:connector-curvature="0"
         d="m 215.6157,388.60522 c -0.71498,-2.49718 -1.77739,-4.85592 -2.6662,-7.28869 -0.81328,-2.44146 -1.23313,-4.8385 0.046,-7.16406 1.16178,-1.92244 3.21878,-2.94206 5.00734,-4.1979 0.96772,-0.68187 2.06449,-1.04968 3.17834,-1.40319 0,0 5.13946,0.66403 5.13946,0.66403 l 0,0 c -1.10167,0.29785 -2.18978,0.60382 -3.15758,1.23859 -1.74881,1.19562 -3.75936,2.21647 -4.9856,3.97672 -1.36887,2.11592 -0.79658,4.42876 -0.0554,6.7035 0.90829,2.45514 1.94232,4.85713 2.6998,7.36822 0,0 -5.2062,0.10278 -5.2062,0.10278 z"
         id="path4256"
         style="fill:#000080;fill-opacity:1;stroke:none;stroke-width:0;stroke-miterlimit:4;stroke-dasharray:none;stroke-opacity:1" />
      <path
         inkscape:connector-curvature="0"
         d="m 226.13985,385.97418 c -0.53244,-2.9879 -0.8042,-6.01077 -0.98568,-9.03746 0.11433,-1.77476 0.025,-0.90894 0.26007,-2.59826 0,0 5.17717,0.0739 5.17717,0.0739 l 0,0 c -0.242,1.62981 -0.14686,0.79872 -0.27999,2.49388 0.1751,3.00448 0.425,6.01264 1.03463,8.96513 0,0 -5.2062,0.10278 -5.2062,0.10278 z"
         id="path4258"
         style="fill:#000080;fill-opacity:1;stroke:none;stroke-width:0;stroke-miterlimit:4;stroke-dasharray:none;stroke-opacity:1" />
    </g>
  </g>
</svg>
